<?xml version="1.0" standalone="no"?><!-- Generator: Gravit.io --><svg xmlns="http://www.w3.org/2000/svg" xmlns:xlink="http://www.w3.org/1999/xlink" style="isolation:isolate" viewBox="0 0 100 100" width="100" height="100"><defs><clipPath id="_clipPath_IdY8d7OTCh5bviRQn12rYVbiXOq0XwBh"><rect width="100" height="100"/></clipPath></defs><g clip-path="url(#_clipPath_IdY8d7OTCh5bviRQn12rYVbiXOq0XwBh)"><clipPath id="_clipPath_z3qcfdPBM9DlM5F64Ql0an2wJ1gELNJz"><rect x="0" y="0" width="100" height="100" transform="matrix(1,0,0,1,0,0)" fill="rgb(0,0,0)"/></clipPath><g clip-path="url(#_clipPath_z3qcfdPBM9DlM5F64Ql0an2wJ1gELNJz)"><g><path d=" M 51.86 15.794 C 53.229 15.794 54.597 15.884 55.951 16.069 C 57.414 16.269 58.862 16.559 60.291 16.933 C 61.889 17.353 63.457 17.872 64.99 18.486 C 66.389 19.041 67.757 19.66 69.1 20.329 L 99.106 11.1 L 89.322 40.451 C 90.006 41.64 90.661 42.848 91.28 44.072 C 91.924 45.35 92.513 46.654 93.038 47.987 C 93.692 49.66 94.221 51.378 94.611 53.131 C 94.911 54.49 95.06 55.878 95.06 57.272 C 95.05 57.996 94.941 58.71 94.736 59.404 C 94.531 60.113 94.271 60.813 93.962 61.487 C 93.612 62.241 93.228 62.975 92.803 63.689 C 92.334 64.488 91.824 65.267 91.29 66.027 C 90.056 67.769 88.713 69.428 87.264 70.996 C 85.616 72.784 83.868 74.477 82.026 76.06 C 80.028 77.783 77.925 79.376 75.723 80.829 C 73.425 82.358 71.013 83.711 68.511 84.88 C 65.939 86.078 63.267 87.042 60.525 87.751 C 57.714 88.476 54.832 88.885 51.93 88.96 C 51.92 88.96 51.905 88.96 51.89 88.96 L 51.191 88.97 C 51.176 88.97 51.161 88.97 51.146 88.97 C 48.235 88.955 45.333 88.6 42.506 87.906 C 39.689 87.227 36.943 86.288 34.296 85.104 C 31.684 83.946 29.157 82.597 26.729 81.074 C 24.397 79.611 22.15 78.013 20.007 76.285 C 18.019 74.687 16.122 72.983 14.329 71.176 C 12.751 69.602 11.272 67.929 9.899 66.171 C 9.309 65.407 8.745 64.618 8.216 63.814 C 7.746 63.095 7.317 62.356 6.927 61.597 C 6.573 60.917 6.278 60.213 6.043 59.489 C 5.809 58.775 5.679 58.031 5.664 57.277 C 5.664 56.942 5.674 56.607 5.694 56.273 C 5.714 55.933 5.744 55.594 5.784 55.254 C 5.908 54.19 6.113 53.136 6.403 52.098 C 6.752 50.834 7.182 49.585 7.681 48.372 C 8.256 46.973 8.905 45.605 9.624 44.277 C 10.328 42.978 11.072 41.7 11.852 40.446 L 0.894 11.03 L 31.294 20.384 C 33.012 19.75 34.745 19.156 36.488 18.601 C 38.141 18.077 39.819 17.607 41.507 17.198 C 43.415 16.738 45.348 16.369 47.296 16.104 C 48.809 15.899 50.332 15.794 51.86 15.794 Z  M 51.86 21.288 C 52.984 21.288 54.103 21.363 55.216 21.513 C 56.455 21.683 57.684 21.927 58.892 22.247 C 60.271 22.607 61.629 23.056 62.953 23.586 C 64.526 24.215 66.064 24.924 67.557 25.713 C 68.201 26.053 68.956 26.123 69.65 25.913 L 90.516 19.49 L 83.714 39.897 C 83.459 40.656 83.554 41.49 83.963 42.179 C 84.822 43.607 85.626 45.066 86.375 46.549 C 86.945 47.678 87.464 48.826 87.924 50 C 88.478 51.403 88.918 52.852 89.247 54.325 C 89.457 55.274 89.567 56.243 89.567 57.217 C 89.562 57.436 89.527 57.656 89.462 57.866 C 89.332 58.32 89.172 58.76 88.973 59.184 C 88.703 59.769 88.408 60.338 88.079 60.887 C 87.679 61.562 87.254 62.216 86.805 62.855 C 85.706 64.403 84.513 65.877 83.224 67.27 C 81.721 68.908 80.128 70.451 78.445 71.895 C 76.617 73.468 74.699 74.921 72.691 76.25 C 70.614 77.628 68.441 78.847 66.184 79.9 C 63.921 80.959 61.564 81.808 59.147 82.433 C 56.75 83.052 54.288 83.401 51.81 83.466 L 51.151 83.476 C 48.674 83.461 46.207 83.157 43.805 82.572 C 41.308 81.963 38.875 81.134 36.533 80.09 C 34.156 79.031 31.853 77.803 29.651 76.42 C 27.498 75.071 25.426 73.598 23.448 72.005 C 21.62 70.531 19.872 68.963 18.214 67.295 C 16.796 65.882 15.467 64.378 14.239 62.795 C 13.734 62.151 13.26 61.482 12.81 60.798 C 12.446 60.243 12.111 59.669 11.807 59.075 C 11.587 58.655 11.407 58.221 11.262 57.766 C 11.202 57.586 11.162 57.401 11.157 57.207 C 11.157 57.007 11.162 56.807 11.177 56.602 C 11.192 56.368 11.212 56.128 11.237 55.893 C 11.332 55.109 11.482 54.33 11.697 53.571 C 11.986 52.512 12.346 51.473 12.76 50.459 C 13.26 49.241 13.829 48.052 14.454 46.894 C 15.308 45.315 16.226 43.767 17.205 42.264 C 17.68 41.535 17.78 40.621 17.475 39.807 L 9.934 19.56 L 30.575 25.913 C 31.159 26.093 31.789 26.073 32.358 25.853 C 34.271 25.129 36.203 24.454 38.151 23.835 C 39.684 23.351 41.233 22.916 42.796 22.537 C 44.529 22.117 46.277 21.788 48.04 21.548 C 49.308 21.373 50.582 21.288 51.86 21.288 Z  M 45.118 65.659 L 55.107 65.659 Q 53.632 70.817 50.112 70.817 Q 46.592 70.817 45.118 65.659 Z " fill-rule="evenodd" fill="rgb(0,0,0)"/></g></g></g></svg>